<?xml version="1.0" encoding="utf-8"?>
<!-- Generator: Adobe Illustrator 27.8.0, SVG Export Plug-In . SVG Version: 6.00 Build 0)  -->
<svg version="1.1" id="Layer_1" xmlns="http://www.w3.org/2000/svg" xmlns:xlink="http://www.w3.org/1999/xlink" x="0px" y="0px"
	 viewBox="0 0 1056.8 389" style="enable-background:new 0 0 1056.8 389;" xml:space="preserve">
<style type="text/css">
	.st0{fill:#FFFFFF;}
	.st1{fill:#AA73F2;}
</style>
<g>
	<polygon class="st0" points="359.4,179.6 359.4,60.1 454.3,60.1 454.3,85.5 388.8,85.5 388.8,107.9 432.5,107.9 432.5,132.5 
		388.8,132.5 388.8,179.6 	"/>
	<path class="st0" d="M487.9,127.3h29l-14.3-38.2L487.9,127.3z M437.4,179.6l49-119.5H520l48.3,119.5h-31.7l-10.9-28.8H479
		l-11.1,28.8H437.4z"/>
	<path class="st0" d="M630.9,181.3c-9.1,0-17.6-1.6-25.4-4.7c-7.8-3.1-14.6-7.5-20.4-13.1c-5.8-5.6-10.3-12.1-13.6-19.5
		c-3.2-7.5-4.9-15.5-4.9-24.2c0-8.8,1.6-16.9,4.9-24.3c3.2-7.5,7.8-14,13.7-19.5c5.9-5.6,12.7-9.9,20.5-13.1
		c7.8-3.1,16.2-4.7,25.2-4.7c6.6,0,13.1,1,19.5,2.9c6.4,1.9,12.3,4.6,17.7,8.1c5.4,3.5,9.9,7.6,13.6,12.4l-19.8,19.5
		c-4.2-5.3-8.9-9.3-14.1-11.9c-5.2-2.6-10.8-3.9-16.8-3.9c-4.8,0-9.2,0.9-13.4,2.6c-4.2,1.8-7.8,4.2-10.8,7.3
		c-3.1,3.1-5.5,6.7-7.2,10.9c-1.7,4.2-2.6,8.8-2.6,13.8c0,4.9,0.9,9.4,2.6,13.6c1.8,4.2,4.2,7.8,7.3,10.9c3.1,3.1,6.8,5.5,11.1,7.3
		c4.3,1.7,8.9,2.6,13.9,2.6c5.8,0,11.2-1.3,16.1-3.8c5-2.5,9.4-6.2,13.4-11.1l19.3,18.9c-3.6,4.7-8.1,8.7-13.5,12.2
		c-5.4,3.5-11.2,6.1-17.4,8C643.6,180.3,637.2,181.3,630.9,181.3"/>
	<polygon class="st0" points="732.8,179.6 732.8,86 693.7,86 693.7,60.1 801.3,60.1 801.3,86 762.2,86 762.2,179.6 	"/>
</g>
<g>
	<polygon class="st0" points="359.4,209.5 359.4,329 388.8,329 388.8,281.9 432.5,281.9 432.5,257.3 388.8,257.3 388.8,235 
		454.3,235 454.3,209.5 	"/>
	<rect x="471.4" y="209.5" class="st0" width="29.4" height="119.5"/>
	<polygon class="st0" points="602.4,209.5 602.4,278.8 548.2,209.5 520.5,209.5 520.5,329 548.2,329 548.2,257 604.1,329 630.1,329 
		630.1,209.5 	"/>
	<path class="st0" d="M679.2,303.1h18.4c4.7,0,9-0.9,13.1-2.6c4-1.7,7.6-4.1,10.7-7.2c3.1-3.1,5.5-6.6,7.2-10.7
		c1.7-4,2.6-8.4,2.6-13.1c0-4.8-0.9-9.2-2.6-13.4c-1.7-4.2-4.1-7.8-7.2-10.8c-3.1-3.1-6.6-5.5-10.7-7.3c-4-1.8-8.4-2.6-13.1-2.6
		h-18.4V303.1z M649.8,329V209.5h48.5c8.9,0,17.1,1.5,24.7,4.6c7.6,3.1,14.3,7.3,20.1,12.8c5.7,5.5,10.2,11.8,13.5,19.1
		c3.2,7.3,4.9,15.1,4.9,23.6c0,8.3-1.6,16-4.9,23.2c-3.2,7.2-7.7,13.5-13.5,18.9c-5.7,5.4-12.4,9.6-20.1,12.7
		c-7.6,3.1-15.9,4.6-24.7,4.6H649.8z"/>
	<polygon class="st0" points="776.4,209.5 776.4,329 871.3,329 871.3,303.6 805.7,303.6 805.7,281.1 848.6,281.1 848.6,256.5 
		805.7,256.5 805.7,235 870.6,235 870.6,209.5 	"/>
	<path class="st0" d="M919.2,261.6h29c4.6,0,8.2-1.2,11-3.8c2.8-2.5,4.2-5.7,4.2-9.7c0-4-1.4-7.2-4.2-9.7c-2.8-2.5-6.5-3.8-11-3.8
		h-29V261.6z M889.8,329V209.5H951c8.2,0,15.5,1.6,21.8,4.9c6.4,3.2,11.4,7.7,14.9,13.5c3.6,5.7,5.4,12.3,5.4,19.7
		c0,7.5-2,14.2-6.1,20.1c-4.1,5.9-9.5,10.4-16.2,13.5l26.1,47.8h-32.8l-22.5-43.5h-22.4V329H889.8z"/>
</g>
<polygon class="st1" points="59.9,60 59.9,329 89.8,329 89.8,89.9 239.5,89.9 239.7,89.9 239.7,119.8 239.5,119.8 119.9,119.8 
	119.9,209.5 239.5,209.5 239.7,209.5 239.7,239.4 239.5,239.4 120.3,239.4 119.9,239.4 119.9,329 329.5,329 329.5,60.1 329.5,60.1 
	299.6,60.1 299.6,60.1 299.6,299.1 149.8,299.1 149.8,299.1 149.8,269.3 149.8,269.3 269.6,269.3 269.6,179.6 149.8,179.6 
	149.8,179.6 149.8,179.6 149.8,149.7 149.8,149.7 269.6,149.7 269.6,60 "/>
</svg>
